control3min_grf.mot
version=1
nRows=20
nColumns 19
inDegrees=yes
endheader
time	1_ground_force_vx	1_ground_force_vy	1_ground_force_vz	1_ground_force_px	1_ground_force_py	1_ground_force_pz	1_ground_torque_x	1_ground_torque_y	1_ground_torque_z	2_ground_force_vx	2_ground_force_vy	2_ground_force_vz	2_ground_force_px	2_ground_force_py	2_ground_force_pz	2_ground_torque_x	2_ground_torque_y	2_ground_torque_z
            2.502500	           -0.827062	            8.472917	           -0.099191	           -0.233013	            0.005581	           -0.255695	            0.319286	           -0.332681	           -0.131696	            1.635113	           14.724231	            3.899952	           -0.194563	            0.005715	           -0.679182	           -0.051648	           -0.465092	           -0.123187
            2.503000	           -0.323002	            9.014008	           -0.143979	           -0.233013	            0.005581	           -0.255695	            0.283476	           -0.480432	           -0.091960	            1.775786	           14.723735	            4.181461	           -0.204878	            0.005703	           -0.686120	           -0.059895	           -0.496611	           -0.141035
            2.503500	           -0.277626	            7.212736	           -0.472814	           -0.233013	            0.005581	           -0.255695	            0.429855	           -0.646937	           -0.053422	            1.640491	           13.250543	            4.035480	           -0.201403	            0.005682	           -0.676786	           -0.059626	           -0.481606	           -0.146674
            2.504000	            0.225766	            8.295608	           -0.744563	           -0.233013	            0.005581	           -0.255695	            0.365808	           -0.637403	           -0.050557	            1.547312	           13.067228	            3.706366	           -0.202465	            0.005689	           -0.679809	           -0.053023	           -0.447789	           -0.127010
            2.504500	            0.408062	            9.198544	           -1.108001	           -0.233013	            0.005581	           -0.255695	            0.362063	           -0.591035	           -0.061360	            1.407927	           12.699762	            3.329687	           -0.205219	            0.005702	           -0.686302	           -0.042159	           -0.380286	           -0.099705
            2.505000	            0.500449	            8.476516	           -0.882041	           -0.233013	            0.005581	           -0.255695	            0.428053	           -0.434237	            0.037074	            1.134057	           10.673785	            3.134866	           -0.212974	            0.005624	           -0.672295	           -0.040833	           -0.384322	           -0.112874
            2.505500	           -0.186138	            8.294348	           -0.468404	           -0.233013	            0.005581	           -0.255695	            0.410390	           -0.351190	           -0.029436	            1.461341	           10.859118	            3.135384	           -0.200830	            0.005704	           -0.682310	           -0.063207	           -0.469688	           -0.135614
            2.506000	           -0.552037	            8.653236	           -0.099100	           -0.233013	            0.005581	           -0.255695	            0.375715	           -0.406813	           -0.045240	            1.747675	            9.387616	            2.942295	           -0.232311	            0.006130	           -0.833667	           -1.633209	           -0.308589	            0.056166
            2.506500	           -0.827388	            9.014107	           -0.188583	           -0.233013	            0.005581	           -0.255695	            0.266661	           -0.526967	           -0.094821	            1.791805	           10.124880	            2.804119	           -0.208692	            0.005709	           -0.691618	           -0.081206	           -0.458867	           -0.127085
            2.507000	           -0.232080	            8.835136	           -0.465971	           -0.233013	            0.005581	           -0.255695	            0.353729	           -0.646931	           -0.051336	            1.751019	            8.466707	            2.985938	           -0.232311	            0.006130	           -0.833667	           -1.483250	           -0.222838	            0.018706
            2.507500	            0.134095	            8.836190	           -0.696161	           -0.233013	            0.005581	           -0.255695	            0.401034	           -0.609707	           -0.054454	            1.516769	            8.465861	            2.986038	           -0.232311	            0.006130	           -0.833667	           -1.351836	           -0.212507	           -0.094418
            2.508000	            0.317011	            8.837012	           -0.880040	           -0.233013	            0.005581	           -0.255695	            0.333816	           -0.517289	           -0.027274	            1.614292	            7.362648	            2.606631	           -0.232311	            0.006130	           -0.833667	           -1.333119	           -0.193534	           -0.094358
            2.508500	            0.637376	            8.657791	           -1.110888	           -0.233013	            0.005581	           -0.255695	            0.418990	           -0.369561	            0.062030	            1.471667	            7.915255	            2.420949	           -0.232311	            0.006130	           -0.833667	           -1.201672	           -0.183472	           -0.132081
            2.509000	            0.042670	            8.655514	           -0.604994	           -0.233013	            0.005581	           -0.255695	            0.491321	           -0.342153	            0.055355	            1.430052	            6.442569	            2.228000	           -0.232311	            0.006130	           -0.833667	           -1.126495	           -0.211021	           -0.283016
            2.509500	           -0.552313	            8.293294	           -0.238214	           -0.233013	            0.005581	           -0.255695	            0.475583	           -0.425124	           -0.083149	            1.808092	            5.523850	            2.036843	           -0.232311	            0.006130	           -0.833667	           -1.032399	           -0.239577	           -0.132355
            2.510000	           -0.322840	            9.374146	           -0.050721	           -0.233013	            0.005581	           -0.255695	            0.410904	           -0.619297	           -0.036490	            1.807304	            5.709003	            1.755932	           -0.232311	            0.006130	           -0.833667	           -0.994956	           -0.210882	           -0.188821
            2.510500	           -0.415011	            8.293714	           -0.330267	           -0.233013	            0.005581	           -0.255695	            0.348324	           -0.610279	           -0.002571	            1.715515	            5.156889	            1.566288	           -0.232311	            0.006130	           -0.833667	           -0.844748	           -0.200550	           -0.283102
            2.511000	           -0.049034	            9.376362	           -0.555819	           -0.233013	            0.005581	           -0.255695	            0.451213	           -0.619181	           -0.024861	            1.530233	            4.602763	            1.845965	           -0.232311	            0.006130	           -0.833667	           -0.826142	           -0.153152	           -0.301791
            2.511500	            0.316604	            9.198133	           -1.016061	           -0.233013	            0.005581	           -0.255695	            0.470620	           -0.507621	           -0.121575	            1.528177	            5.155710	            1.707152	           -0.232311	            0.006130	           -0.833667	           -0.751018	           -0.143562	           -0.264089
            2.512000	            0.683186	            8.838066	           -1.110229	           -0.233013	            0.005581	           -0.255695	            0.474627	           -0.322345	           -0.161535	            1.014761	            4.601906	            1.564616	           -0.232311	            0.006130	           -0.833667	           -0.694382	           -0.209864	           -0.170098
